# Alias OBJ Model File
# Exported from SketchUp, (c) 2000-2012 Trimble Navigation Limited
# File units = meters

mtllib key.mtl

g Mesh1 Model

usemtl FrontColor
v 0.1 0.15 -0.1
vt -3.93701 3.93701
vn 0 -1 -0
v -0.1 0.15 0.1
vt 3.93701 -3.93701
v -0.1 0.15 -0.1
vt 3.93701 3.93701
f 1/1/1 2/2/1 3/3/1

v 0.1 0.15 0.1
vt -3.93701 -3.93701
f 2/2/1 1/1/1 4/4/1

vt 3.93701 5.90551
vn 1 0 -0
v 0.1 2.15 0.1
vt -3.93701 84.6457
vt -3.93701 5.90551
f 1/5/2 5/6/2 4/7/2

v 0.1 2.15 -0.1
vt 3.93701 84.6457
f 5/6/2 1/5/2 6/8/2

v 0.1 0.327247 -0.1
vt 3.93701 12.8837
f 6/8/2 1/5/2 7/9/2

vn 0 0 -1
v -0.1 0.327247 -0.1
vt -3.93701 12.8837
f 1/7/3 8/9/3 7/10/3

f 8/9/3 1/7/3 3/5/3

vn -1 0 -0
v -0.1 0.457247 -0.1
vt -3.93701 18.0019
f 3/7/4 9/11/4 8/10/4

v -0.1 0.726636 -0.1
vt -3.93701 28.6077
f 3/7/4 10/12/4 9/11/4

v -0.1 0.856636 -0.1
vt -3.93701 33.7258
f 3/7/4 11/13/4 10/12/4

v -0.1 2.15 -0.1
f 3/7/4 12/6/4 11/13/4

f 2/5/4 12/6/4 3/7/4

v -0.1 2.15 0.1
f 12/6/4 2/5/4 13/8/4

vn 0 0 1
f 2/7/5 5/8/5 13/6/5

f 5/8/5 2/7/5 4/5/5

vn 0 1 -0
f 5/2/6 12/1/6 13/4/6

f 12/1/6 5/2/6 6/3/6

v 0.35 2.15 -0.35
vt -13.7795 13.7795
f 6/1/1 14/14/1 5/4/1

f 12/3/1 14/14/1 6/1/1

v -0.35 2.15 -0.35
vt 13.7795 13.7795
f 12/3/1 15/15/1 14/14/1

v -0.35 2.15 0.35
vt 13.7795 -13.7795
f 15/15/1 12/3/1 16/16/1

f 13/2/1 16/16/1 12/3/1

v 0.35 2.15 0.35
vt -13.7795 -13.7795
f 16/16/1 13/2/1 17/17/1

f 17/17/1 13/2/1 5/4/1

v -0.1 2.85 0.1
vt 3.93701 112.205
f 18/18/3 5/6/3 13/8/3

v 0.1 2.85 0.1
vt -3.93701 112.205
f 5/6/3 18/18/3 19/19/3

v 0.35 2.85 0.35
f 18/4/6 20/16/6 19/2/6

v -0.35 2.85 0.35
f 18/4/6 21/17/6 20/16/6

v -0.35 2.85 -0.35
f 21/17/6 18/4/6 22/14/6

v -0.1 2.85 -0.1
f 23/1/6 22/14/6 18/4/6

v 0.35 2.85 -0.35
f 22/14/6 23/1/6 24/15/6

v 0.1 2.85 -0.1
f 24/15/6 23/1/6 25/3/6

f 12/6/5 25/18/5 23/19/5

f 25/18/5 12/6/5 6/8/5

v 0.1 0.856636 -0.1
f 26/13/3 12/8/3 6/6/3

vt 3.93701 33.7258
f 12/8/3 26/13/3 11/20/3

v -0.1 0.856636 -0.5
vt -3.93701 19.685
f 26/3/6 27/21/6 11/1/6

v 0.1 0.856636 -0.5
vt 3.93701 19.685
f 27/21/6 26/3/6 28/22/6

v 0.1 0.726636 -0.5
vt 19.685 28.6077
vt 19.685 33.7258
f 26/20/2 29/23/2 28/24/2

v 0.1 0.726636 -0.1
vt 3.93701 28.6077
f 29/23/2 26/20/2 30/25/2

f 6/8/2 30/25/2 26/20/2

v 0.1 0.457247 -0.1
vt 3.93701 18.0019
f 6/8/2 31/26/2 30/25/2

f 6/8/2 7/9/2 31/26/2

v 0.1 0.327247 -0.7
vt 27.5591 12.8837
f 32/27/2 31/26/2 7/9/2

v 0.1 0.457247 -0.7
vt 27.5591 18.0019
f 31/26/2 32/27/2 33/28/2

v -0.1 0.457247 -0.7
f 32/10/3 34/26/3 33/11/3

v -0.1 0.327247 -0.7
f 34/26/3 32/10/3 35/9/3

vt -3.93701 27.5591
vt 3.93701 27.5591
f 32/29/1 8/3/1 35/30/1

f 8/3/1 32/29/1 7/1/1

vt -27.5591 18.0019
vt -27.5591 12.8837
f 8/10/4 34/31/4 35/32/4

f 34/31/4 8/10/4 9/11/4

f 31/3/6 34/29/6 9/1/6

f 34/29/6 31/3/6 33/30/6

f 10/25/3 31/11/3 9/26/3

f 31/11/3 10/25/3 30/12/3

f 10/3/1 29/21/1 30/1/1

v -0.1 0.726636 -0.5
f 29/21/1 10/3/1 36/22/1

vt -19.685 33.7258
vt -19.685 28.6077
f 10/12/4 27/33/4 36/34/4

f 27/33/4 10/12/4 11/13/4

f 27/20/3 29/12/3 36/25/3

f 29/12/3 27/20/3 28/13/3

f 5/8/4 25/19/4 6/6/4

f 25/19/4 5/8/4 19/18/4

f 19/2/6 20/16/6 25/3/6

f 24/15/6 25/3/6 20/16/6

vt -13.7795 112.205
vt 13.7795 84.6457
vt 13.7795 112.205
f 20/35/2 14/36/2 24/37/2

vt -13.7795 84.6457
f 14/36/2 20/35/2 17/38/2

f 20/37/5 16/38/5 17/36/5

f 16/38/5 20/37/5 21/35/5

f 22/35/4 16/36/4 21/37/4

f 16/36/4 22/35/4 15/38/4

f 22/37/3 14/38/3 15/36/3

f 14/38/3 22/37/3 24/35/3

f 17/17/1 5/4/1 14/14/1

f 18/19/2 12/8/2 23/18/2

f 12/8/2 18/19/2 13/6/2

