# Alias OBJ Model File
# Exported from SketchUp, (c) 2000-2012 Trimble Navigation Limited
# File units = meters

mtllib robot.mtl

g Mesh1 Model

usemtl FrontColor
v -1 0.5 -0.2
vt 39.3701 19.685
vn 0 0 -1
v -0.6 -1 -0.2
vt 23.622 -39.3701
v -1 -1 -0.2
vt 39.3701 -39.3701
f 1/1/1 2/2/1 3/3/1

v -0.2 -1 -0.2
vt 7.87402 -39.3701
f 2/2/1 1/1/1 4/4/1

v 0.2 -1 -0.2
vt -7.87402 -39.3701
f 4/4/1 1/1/1 5/5/1

v 0.6 -1 -0.2
vt -23.622 -39.3701
f 5/5/1 1/1/1 6/6/1

v 1 -1 -0.2
vt -39.3701 -39.3701
f 6/6/1 1/1/1 7/7/1

v 1 0.5 -0.2
vt -39.3701 19.685
f 7/7/1 1/1/1 8/8/1

v 1 1 -0.2
vt -39.3701 39.3701
f 8/8/1 1/1/1 9/9/1

v -1 1 -0.2
vt 39.3701 39.3701
f 9/9/1 1/1/1 10/10/1

v -1 0.5 0.2
vt 7.87402 19.685
vn -1 0 -0
vt -7.87402 39.3701
vt -7.87402 19.685
f 11/11/2 10/12/2 1/13/2

v -1 1 0.2
vt 7.87402 39.3701
f 10/12/2 11/11/2 12/14/2

vn 0 0 1
v 1 1 0.2
f 11/8/3 13/10/3 12/9/3

v 1 0.5 0.2
f 11/8/3 14/1/3 13/10/3

v -1 -1 0.2
f 15/7/3 14/1/3 11/8/3

v -0.6 -1 0.2
f 16/6/3 14/1/3 15/7/3

v -0.2 -1 0.2
f 17/5/3 14/1/3 16/6/3

v 0.2 -1 0.2
f 18/4/3 14/1/3 17/5/3

v 0.6 -1 0.2
f 19/2/3 14/1/3 18/4/3

v 1 -1 0.2
f 14/1/3 19/2/3 20/3/3

vt -23.622 -7.87402
vn 0 -1 -0
vt -39.3701 7.87402
vt -39.3701 -7.87402
f 19/15/4 7/16/4 20/17/4

vt -23.622 7.87402
f 7/16/4 19/15/4 6/18/4

vn 1 0 -0
v 0.6 -3 -0.2
vt 7.87402 -118.11
f 19/5/5 21/19/5 6/4/5

v 0.6 -3 0.2
vt -7.87402 -118.11
f 21/19/5 19/5/5 22/20/5

v 0.2 -3 0.2
vt 23.622 -118.11
f 19/2/3 23/19/3 22/21/3

f 23/19/3 19/2/3 18/4/3

vt -7.87402 -7.87402
f 18/22/4 6/18/4 19/15/4

vt -7.87402 7.87402
f 6/18/4 18/22/4 5/23/4

vt 7.87402 -7.87402
f 17/24/4 5/23/4 18/22/4

vt 7.87402 7.87402
f 5/23/4 17/24/4 4/25/4

v -0.2 -3 -0.2
f 17/5/5 24/19/5 4/4/5

v -0.2 -3 0.2
f 24/19/5 17/5/5 25/20/5

v -0.6 -3 0.2
vt -23.622 -118.11
f 17/5/3 26/26/3 25/20/3

f 26/26/3 17/5/3 16/6/3

vt 23.622 -7.87402
f 16/27/4 4/25/4 17/24/4

vt 23.622 7.87402
f 4/25/4 16/27/4 2/28/4

vt 39.3701 -7.87402
f 15/29/4 2/28/4 16/27/4

vt 39.3701 7.87402
f 2/28/4 15/29/4 3/30/4

v -1 -1.5 -0.2
vt 7.87402 -59.0551
f 15/5/5 27/31/5 3/4/5

v -1 -1.5 0.2
vt -7.87402 -59.0551
f 27/31/5 15/5/5 28/32/5

v -1.5 -1.5 0.2
vt -59.0551 -59.0551
vt -39.3701 -59.0551
f 15/7/3 29/33/3 28/34/3

v -1.5 0.5 0.2
vt -59.0551 19.685
f 29/33/3 15/7/3 30/35/3

f 30/35/3 15/7/3 11/8/3

f 1/13/2 15/4/2 11/11/2

f 15/4/2 1/13/2 3/5/2

v -1.5 0.5 -0.2
vt 59.0551 19.685
f 3/3/1 31/36/1 1/1/1

vt 39.3701 -59.0551
f 27/37/1 31/36/1 3/3/1

v -1.5 -1.5 -0.2
vt 59.0551 -59.0551
f 31/36/1 27/37/1 32/38/1

vt 59.0551 -7.87402
vt 59.0551 7.87402
f 27/30/4 29/39/4 32/40/4

f 29/39/4 27/30/4 28/29/4

f 29/31/2 31/13/2 32/32/2

f 31/13/2 29/31/2 30/11/2

vn 0 1 -0
vt -59.0551 7.87402
vt -59.0551 -7.87402
f 11/17/6 31/41/6 30/42/6

f 31/41/6 11/17/6 1/16/6

f 2/5/2 26/19/2 16/4/2

v -0.6 -3 -0.2
f 26/19/2 2/5/2 33/20/2

f 2/2/1 24/19/1 33/21/1

f 24/19/1 2/2/1 4/4/1

f 24/25/4 26/27/4 33/28/4

f 26/27/4 24/25/4 25/24/4

f 5/5/2 23/19/2 18/4/2

v 0.2 -3 -0.2
f 23/19/2 5/5/2 34/20/2

f 5/5/1 21/26/1 34/20/1

f 21/26/1 5/5/1 6/6/1

f 21/18/4 23/22/4 34/23/4

f 23/22/4 21/18/4 22/15/4

v 1 -1.5 0.2
f 7/5/2 35/31/2 20/4/2

v 1 -1.5 -0.2
f 35/31/2 7/5/2 36/32/2

v 1.5 -1.5 -0.2
f 7/7/1 37/33/1 36/34/1

v 1.5 0.5 -0.2
f 37/33/1 7/7/1 38/35/1

f 38/35/1 7/7/1 8/8/1

f 20/4/2 8/13/2 7/5/2

f 8/13/2 20/4/2 14/11/2

v 1.5 0.5 0.2
f 20/3/3 39/36/3 14/1/3

f 35/37/3 39/36/3 20/3/3

v 1.5 -1.5 0.2
f 39/36/3 35/37/3 40/38/3

f 35/17/4 37/41/4 40/42/4

f 37/41/4 35/17/4 36/16/4

f 37/31/5 39/13/5 40/32/5

f 39/13/5 37/31/5 38/11/5

f 8/30/6 39/39/6 38/40/6

f 39/39/6 8/30/6 14/29/6

f 8/11/5 13/12/5 14/13/5

f 13/12/5 8/11/5 9/14/5

v 0.333333 1 -0.2
vt 13.1234 7.87402
f 41/43/6 13/29/6 9/30/6

v 0.333333 1 0.2
vt 13.1234 -7.87402
f 13/29/6 41/43/6 42/44/6

vn 1 1.01392e-16 -0
v 0.333333 1.89 0.2
vt -7.87402 74.4094
f 41/14/7 43/45/7 42/12/7

v 0.333333 1.89 -0.2
vt 7.87402 74.4094
f 43/45/7 41/14/7 44/46/7

vt -13.1234 39.3701
v -0.333333 1.89 -0.2
vt 13.1234 74.4094
vt -13.1234 74.4094
f 41/47/1 45/48/1 44/49/1

v -0.333333 1 -0.2
vt 13.1234 39.3701
f 45/48/1 41/47/1 46/50/1

f 9/9/1 46/50/1 41/47/1

f 9/9/1 10/10/1 46/50/1

v -0.333333 1 0.2
vt -13.1234 -7.87402
vt -13.1234 7.87402
f 10/16/6 47/51/6 46/52/6

f 47/51/6 10/16/6 12/17/6

f 12/9/3 42/50/3 47/47/3

f 12/9/3 13/10/3 42/50/3

f 43/48/3 47/47/3 42/50/3

v -0.333333 1.89 0.2
f 47/47/3 43/48/3 48/49/3

f 43/44/6 45/52/6 48/51/6

f 45/52/6 43/44/6 44/43/6

f 45/45/2 47/14/2 48/46/2

f 47/14/2 45/45/2 46/12/2

f 42/44/6 46/52/6 47/51/6

f 46/52/6 42/44/6 41/43/6

